Coordinates
nRows=8
nColumns=38

# SIMM Motion File Header:
name Coordinates
datacolumns 38
datarows 8
otherdata 1
range 1.37500000000000000000 1.38199999999999990000

Units are S.I. units (second, meters, Newtons, ...)
Angles are in degrees.

endheader
time	pelvis_tx	pelvis_ty	pelvis_tz	pelvis_tilt	pelvis_list	pelvis_rotation	hip_flexion_r	hip_adduction_r	hip_rotation_r	knee_angle_r	ankle_angle_r	subtalar_angle_r	mtp_angle_r	hip_flexion_l	hip_adduction_l	hip_rotation_l	knee_angle_l	ankle_angle_l	subtalar_angle_l	mtp_angle_l	lumbar_extension	lumbar_bending	lumbar_rotation	arm_flex_r	arm_add_r	arm_rot_r	elbow_flex_r	pro_sup_r	wrist_flex_r	wrist_dev_r	arm_flex_l	arm_add_l	arm_rot_l	elbow_flex_l	pro_sup_l	wrist_flex_l	wrist_dev_l
      1.37500000000000000000	      0.84465746951622955000	      0.97102400127786359000	     -0.21323362975568305000	      0.37010323566486336000	      0.68179770866476797000	     -5.06670318338723910000	    -31.32191795504110800000	      0.35411279748765356000	      4.10442667243459260000	    -13.00105649432757600000	    -22.53557200285967000000	      0.00000000000007459736	      0.00000000000021550981	     33.89593280003111200000	      0.47298620313332845000	     -8.00658763567338560000	    -36.85256304879679600000	      8.74776315381285310000	     -0.00000000000042695642	     -0.00000000000024501594	     -6.29644045964639430000	      0.44850186752914545000	     20.16813552091460700000	    -14.95674845516498100000	    -39.64425269633870400000	     -7.95052379531163830000	    113.01497074478631000000	    118.96228567808690000000	     -0.00000000000004514641	     -0.00000000000004278797	    -41.24661310368453800000	    -28.63312158973310400000	      5.79010691985195260000	     79.58383005624168000000	    107.59174857672197000000	      0.00000000000000968915	     -0.00000000000005384047
      1.37599999999999990000	      0.84478748088781397000	      0.97101644769525286000	     -0.21335325164848740000	      0.39270413253816350000	      0.66091938333736189000	     -5.03540903043331060000	    -31.32805247068718300000	      0.36415803547175868000	      3.97796957745429050000	    -13.33253212106325800000	    -22.74275310113873900000	      0.00000000000007525324	      0.00000000000021638536	     33.74729695888407100000	      0.50821464774652514000	     -7.96646300275777990000	    -36.23824256036395000000	      8.67603672517802950000	     -0.00000000000042786889	     -0.00000000000024575691	     -6.31931639349049060000	      0.47225948333739248000	     20.21298362920893900000	    -14.91902333251139400000	    -39.62798623937468500000	     -7.97754036433376970000	    113.12160371850435000000	    118.99084529241519000000	     -0.00000000000004526183	     -0.00000000000004280814	    -41.30801444832084700000	    -28.69184104356827800000	      5.77128989948063960000	     79.57532708778994400000	    107.55089865993264000000	      0.00000000000000976967	     -0.00000000000005386440
      1.37700000000000000000	      0.84491512807994207000	      0.97099984230038705000	     -0.21347308090394074000	      0.41589154317337562000	      0.63934000519798362000	     -5.00327828047839420000	    -31.32980842105923700000	      0.37529731580689885000	      3.85117573742949130000	    -13.67363870516273000000	    -22.94381496026651500000	      0.00000000000007590896	      0.00000000000021726246	     33.59867677996462000000	      0.54272563139456953000	     -7.92518241906289410000	    -35.63149783064714200000	      8.60366622150886150000	     -0.00000000000042878311	     -0.00000000000024649748	     -6.34308651347020990000	      0.49647892093493029000	     20.25584482660982400000	    -14.88154226812858000000	    -39.61115223323976400000	     -8.00245724798396200000	    113.22349261216550000000	    119.01837623275486000000	     -0.00000000000004536363	     -0.00000000000004281978	    -41.36632888367140000000	    -28.75000033142005400000	      5.75449009582265520000	     79.56647842954080800000	    107.51057923251236000000	      0.00000000000000985154	     -0.00000000000005388645
      1.37799999999999990000	      0.84504039441462264000	      0.97097414970141804000	     -0.21359310168520593000	      0.43966039072389512000	      0.61710140524155332000	     -4.97032470041504480000	    -31.32722742951335700000	      0.38746510693953773000	      3.72408670435748280000	    -14.02427544497468900000	    -23.13875346769755500000	      0.00000000000007656252	      0.00000000000021814093	     33.45019148777323900000	      0.57653441172800346000	     -7.88279661069644530000	    -35.03257551242474900000	      8.53073298713463220000	     -0.00000000000042969593	     -0.00000000000024723456	     -6.36773322004154800000	      0.52111197135252396000	     20.29673112661287600000	    -14.84430745678850100000	    -39.59375413791190800000	     -8.02525975834968720000	    113.32060506841911000000	    119.04489177373804000000	     -0.00000000000004545655	     -0.00000000000004282208	    -41.42154211662762000000	    -28.80759380950604900000	      5.73972436337180540000	     79.55729522985831200000	    107.47082257186638000000	      0.00000000000000993479	     -0.00000000000005390413
      1.37900000000000000000	      0.84516326193802893000	      0.97093933508130370000	     -0.21371329748646867000	      0.46400524585925207000	      0.59424557127965383000	     -4.93656258378654120000	    -31.32035164076665600000	      0.40059552207361809000	      3.59674355070886830000	    -14.38433849993355900000	    -23.32756772666107300000	      0.00000000000007721593	      0.00000000000021902193	     33.30195933798020700000	      0.60965628234227276000	     -7.83935690467604210000	    -34.44171920905267800000	      8.45731839917000090000	     -0.00000000000043061167	     -0.00000000000024796542	     -6.39323880436758340000	      0.54611033407027321000	     20.33565476884534500000	    -14.80732081775359500000	    -39.57579548470562300000	     -8.04593348713975410000	    113.41290939732770000000	    119.07040577389697000000	     -0.00000000000004554761	     -0.00000000000004281721	    -41.47363985990210700000	    -28.86461580457135400000	      5.72700868044040680000	     79.54778763491600600000	    107.43166091009792000000	      0.00000000000001001988	     -0.00000000000005392387
      1.37999999999999990000	      0.84528371149199677000	      0.97089536417989852000	     -0.21383365110340968000	      0.48892032981728339000	      0.57081461065501782000	     -4.90200675247198350000	    -31.30922367571322700000	      0.41462238431906884000	      3.46918685890872110000	    -14.75372105033346800000	    -23.51026001286675200000	      0.00000000000007786956	      0.00000000000021990240	     33.15409753295360000000	      0.64210658143264809000	     -7.79491517373345300000	    -33.85916929809784600000	      8.38350382094579420000	     -0.00000000000043152865	     -0.00000000000024869588	     -6.41958545080032380000	      0.57142565496653186000	     20.37262819536949000000	    -14.77058399103714100000	    -39.55727986442235500000	     -8.06446431560601520000	    113.50037459557332000000	    119.09493265926663000000	     -0.00000000000004564937	     -0.00000000000004282784	    -41.52260782261174700000	    -28.92106061639959000000	      5.71635813063112240000	     79.53796477606361700000	    107.39312639591016000000	      0.00000000000001010402	     -0.00000000000005394928
      1.38100000000000000000	      0.84540172279167602000	      0.97084220327584358000	     -0.21395414460722045000	      0.51439951760730762000	      0.54685071297236643000	     -4.86667255701267450000	    -31.29388658616092700000	      0.42947929154654130000	      3.34145671085287970000	    -15.13231335645432600000	    -23.68683573633761700000	      0.00000000000007852230	      0.00000000000022078469	     33.00672213723016300000	      0.67390069979827005000	     -7.74952378050877490000	    -33.28516275474999700000	      8.30937055604828250000	     -0.00000000000043244601	     -0.00000000000024942858	     -6.44675523912534490000	      0.59700956442172426000	     20.40766402814600900000	    -14.73409833303290000000	    -39.53821091560448100000	     -8.08083842424448660000	    113.58297036579511000000	    119.11848740698365000000	     -0.00000000000004574366	     -0.00000000000004283370	    -41.56843170183714900000	    -28.97692251963088200000	      5.70778688482526770000	     79.52783475675885000000	    107.35525105651628000000	      0.00000000000001018819	     -0.00000000000005397828
      1.38199999999999990000	      0.84551727450864045000	      0.97077981916850686000	     -0.21407475932242992000	      0.54043634134278751000	      0.52239611284070187000	     -4.83057587548635590000	    -31.27438380954989900000	      0.44509968087930729000	      3.21359267744521130000	    -15.52000281710576200000	    -23.85730340880582600000	      0.00000000000007917294	      0.00000000000022166683	     32.85994799286525800000	      0.70505408815866166000	     -7.70323552113613190000	    -32.71993297509874300000	      8.23499980296241670000	     -0.00000000000043336166	     -0.00000000000025016614	     -6.47473014676614510000	      0.62281371557159337000	     20.44077504769991500000	    -14.69786491147248600000	    -39.51859231290432500000	     -8.09504230225489780000	    113.66066713600540000000	    119.14108552888118000000	     -0.00000000000004584513	     -0.00000000000004283845	    -41.61109717517639700000	    -29.03219576487032700000	      5.70130818371595980000	     79.51740463905405000000	    107.31806675955978000000	      0.00000000000001027274	     -0.00000000000005400846
